Coordinates
version=1
nRows=27
nColumns=12
inDegrees=yes

Units are S.I. units (second, meters, Newtons, ...)
Angles are in degrees

endheader
time	SC_y	SC_z	SC_x	AC_y	AC_z	AC_x	GH_y	GH_z	GH_yy	EL_x	PS_y
       0.0              -28.31          8.827          27.28          38.47         -19.65         -15.42          66.99          46.56          11.98          91.23          143.1
   0.01368              -28.31          8.827          27.28          38.47         -19.65         -15.42          66.98          46.56          11.99          91.23          143.1
   0.02736              -28.31          8.828          27.27          38.47         -19.64         -15.42          66.97          46.56           12.0          91.23          143.1
   0.04105              -28.32          8.828          27.27          38.47         -19.64         -15.42          66.96          46.56          12.01          91.23          143.1
   0.05473              -28.32          8.829          27.27          38.48         -19.64         -15.42          66.95          46.56          12.02          91.22          143.1
   0.06841              -28.32          8.829          27.27          38.48         -19.64         -15.42          66.94          46.56          12.03          91.22          143.1
   0.08209              -28.32           8.83          27.27          38.48         -19.63         -15.42          66.93          46.56          12.04          91.22          143.0
   0.09578              -28.32          8.831          27.27          38.48         -19.63         -15.42          66.92          46.56          12.05          91.21          143.0
    0.1095              -28.32          8.831          27.27          38.49         -19.63         -15.42          66.91          46.56          12.07          91.21          143.0
    0.1231              -28.32          8.832          27.26          38.49         -19.62         -15.42          66.89          46.56          12.08          91.21          143.0
    0.1368              -28.33          8.833          27.26           38.5         -19.62         -15.42          66.88          46.56           12.1           91.2          142.9
    0.1505              -28.33          8.833          27.26           38.5         -19.61         -15.42          66.86          46.56          12.11           91.2          142.9
    0.1642              -28.33          8.834          27.26           38.5         -19.61         -15.42          66.84          46.56          12.13          91.19          142.9
    0.1779              -28.33          8.835          27.26          38.51          -19.6         -15.42          66.83          46.56          12.15          91.19          142.8
    0.1916              -28.33          8.836          27.25          38.51          -19.6         -15.42          66.81          46.56          12.17          91.18          142.8
    0.2052              -28.34          8.837          27.25          38.52         -19.59         -15.42          66.78          46.56           12.2          91.18          142.8
    0.2189              -28.34          8.839          27.25          38.52         -19.58         -15.42          66.76          46.55          12.22          91.17          142.7
    0.2326              -28.34           8.84          27.24          38.53         -19.58         -15.42          66.73          46.55          12.25          91.16          142.7
    0.2463              -28.34          8.841          27.24          38.54         -19.57         -15.42          66.71          46.55          12.28          91.15          142.6
      0.26              -28.35          8.843          27.24          38.55         -19.56         -15.42          66.68          46.55          12.31          91.14          142.6
    0.2736              -28.35          8.844          27.23          38.55         -19.55         -15.42          66.64          46.55          12.35          91.13          142.5
    0.2873              -28.36          8.846          27.23          38.56         -19.54         -15.42           66.6          46.55          12.39          91.12          142.4
     0.301              -28.36          8.848          27.22          38.57         -19.53         -15.42          66.56          46.55          12.43          91.11          142.4
    0.3147              -28.37          8.851          27.21          38.59         -19.51         -15.42          66.52          46.55          12.48           91.1          142.3
    0.3284              -28.37          8.853          27.21           38.6          -19.5         -15.42          66.47          46.55          12.53          91.08          142.2
    0.3421              -28.38          8.856           27.2          38.61         -19.48         -15.42          66.41          46.54           12.6          91.07          142.1
    0.3557              -28.38          8.859          27.19          38.63         -19.47         -15.42          66.35          46.54          12.66          91.05          142.0
